<?xml version="1.0" encoding="UTF-8"?>
<svg id="Layer_2" data-name="Layer 2" xmlns="http://www.w3.org/2000/svg" viewBox="0 0 84.26 95">
  <defs>
    <style>
      .cls-1 {
        fill: #fff;
      }

      .cls-2 {
        fill: #a8b8d4;
      }
    </style>
  </defs>
  <g id="Layer_1-2" data-name="Layer 1">
    <g>
      <path class="cls-2" d="M62.61,37.4c0-11.3-9.2-20.5-20.5-20.5s-20.5,9.2-20.5,20.5,9.2,20.5,20.5,20.5,20.5-9.2,20.5-20.5ZM44.01,47.2v2.9h-3.6v-2.9c-3.1-.2-5.5-2.7-5.5-5.8h3.6c0,1.2,1,2.2,2.2,2.2h2.9c1.2,0,2.2-1,2.2-2.2s-1-2.2-2.2-2.2h-2.9c-3.3,0-5.9-2.7-5.9-5.9s2.4-5.6,5.5-5.8v-2.9h3.6v2.9c3.1.2,5.5,2.7,5.5,5.8h-3.6c0-1.2-1-2.2-2.2-2.2h-2.9c-1.3,0-2.3,1-2.2,2.2,0,1.2,1,2.2,2.2,2.2h2.9c3.3,0,5.9,2.7,5.9,5.9s-2.4,5.6-5.5,5.8Z"/>
      <path class="cls-1" d="M35.61,80.3l-2-10.8c-.6-3.4-2.3-6.5-4.8-8.8l-8.9-8.3c-.5-.5-1.1-.8-1.7-1l-2-15.5c-.2-1.7-1.1-3.2-2.5-4.2-1.4-1-3.1-1.4-4.7-1.1-2.5.5-4.6,2.5-5,5L.21,56.3c-.6,3.6.1,7.2,2.2,10.1l10.1,14.5c-.4.4-.6.9-.6,1.4v10.7c0,1.1.9,2,2,2h21.6c1.1,0,2-.9,2-2v-10.7c0-1.1-.8-2-1.9-2ZM5.71,64.1c-1.4-2.1-2-4.6-1.5-7.1l3.7-20.7c.2-.9.9-1.6,1.7-1.7.6-.1,1.2,0,1.6.4.5.3.8.9.9,1.5l2,15.2c-.6.3-1.1.6-1.5,1.1-1.6,1.7-1.7,4.3-.4,6.3l7.5,11.1c.6.9,1.9,1.2,2.8.5.9-.6,1.2-1.9.5-2.8l-7.6-11.2c-.3-.4-.2-.9.1-1.3.2-.3.5-.3.7-.3s.5,0,.7.3l8.9,8.3c1.9,1.8,3.1,4.1,3.6,6.6l1.9,10h-14.4l-11.2-16.2ZM33.51,91H15.91v-6.6h17.6v6.6Z"/>
      <path class="cls-1" d="M80.31,35.6c-.5-2.5-2.5-4.5-5-5-1.7-.3-3.4.1-4.7,1.1-1.4,1-2.3,2.5-2.5,4.2l-2,15.5c-.6.2-1.2.6-1.7,1l-8.9,8.3c-2.5,2.4-4.2,5.4-4.8,8.8l-2,10.8c-1.1.1-1.9.9-1.9,2v10.7c0,1.1.9,2,2,2h21.6c1.1,0,2-.9,2-2v-10.7c0-.6-.2-1.1-.6-1.4l10.1-14.5c2-3,2.8-6.6,2.1-10.1l-3.7-20.7ZM68.31,91h-17.6v-6.6h17.6v6.6ZM78.51,64.1l-11.2,16.2h-14.6l1.9-10c.5-2.5,1.7-4.8,3.6-6.6l8.9-8.3c.3-.3.6-.3.7-.3.2,0,.5.1.7.3.3.4.3.9.1,1.3l-7.5,11.1c-.6.9-.4,2.2.5,2.8.9.6,2.2.4,2.8-.5l7.6-11.1c1.3-1.9,1.1-4.5-.4-6.3-.4-.5-1-.8-1.5-1.1l2-15.2c.1-.6.4-1.1.9-1.5.5-.3,1.1-.5,1.6-.4.9.2,1.6.8,1.7,1.7l3.7,20.7c.5,2.6,0,5.1-1.5,7.2Z"/>
      <path class="cls-2" d="M42.11,12.5c1.1,0,2-.9,2-2V2c0-1.1-.9-2-2-2s-2,.9-2,2v8.5c0,1.1.9,2,2,2Z"/>
      <path class="cls-2" d="M52.41,14.6c.3.1.5.2.8.2.8,0,1.5-.5,1.9-1.2l3.2-7.8c.4-1-.1-2.2-1.1-2.6-1-.4-2.2.1-2.6,1.1l-3.2,7.8c-.5.9,0,2,1,2.5Z"/>
      <path class="cls-2" d="M29.21,13.5c.3.8,1.1,1.2,1.9,1.2.3,0,.5,0,.8-.2,1-.4,1.5-1.6,1.1-2.6l-3.2-7.8c-.4-1-1.6-1.5-2.6-1.1s-1.5,1.6-1.1,2.6l3.1,7.9Z"/>
    </g>
  </g>
</svg>