<?xml version="1.0" encoding="UTF-8"?>
<svg id="Layer_1" xmlns="http://www.w3.org/2000/svg" version="1.1" viewBox="0 0 30 29">
  <!-- Generator: Adobe Illustrator 29.1.0, SVG Export Plug-In . SVG Version: 2.1.0 Build 142)  -->
  <defs>
    <style>
      .st0 {
        fill: #fff;
      }
    </style>
  </defs>
  <path d="M20,0c7.7,1.2,8.9,3.8,10,11v8c-1,6.4-3.4,9.4-10,10h-10c-7.7-1.2-8.9-3.8-10-11v-7C1.1,3.8,2.3,1.2,10,0h10Z"/>
  <path class="st0" d="M10,0c-2.3,2-5.1,2.8-7,5.5s-1.5,3.9-3,5.5V0h10Z"/>
  <path class="st0" d="M20,0h10v11c-1.5-1.6-1.6-3.6-3-5.5s-4.7-3.5-7-5.5Z"/>
  <path class="st0" d="M10,29H0v-11c1.5,1.6,1.6,3.6,3,5.5s4.7,3.5,7,5.5Z"/>
  <path class="st0" d="M30,19v10h-10c4.8-2.2,7.2-5.8,10-10Z"/>
  <path class="st0" d="M16,5c.1.2-.3,1.1.7,2s4.9,2.5,3.3,4-3.2-2.2-5.5-2.1-2.9,1.3-2.5,2.6c.9,2.8,9.4,1.8,8.8,6.8s-4,4.9-6.3,5.7c-1-3-4.3-1.7-5.5-5.5,2.4-3.2,2.3.7,3.7,1.5,4.1,2.6,8.2-2.4,4.7-4.1s-6.3-.6-7.2-3.6,1.6-4,3.6-5.7.8-3.8,2.3-1.7Z"/>
</svg>