<?xml version="1.0" encoding="UTF-8"?>
<svg id="Layer_2" data-name="Layer 2" xmlns="http://www.w3.org/2000/svg" viewBox="0 0 66 88">
  <defs>
    <style>
      .cls-1 {
        fill: #a8b8d4;
        fill-rule: evenodd;
      }

      .cls-2 {
        fill: #fff;
      }
    </style>
  </defs>
  <g id="Layer_1-2" data-name="Layer 1">
    <g>
      <path class="cls-2" d="M64,0H2C.93,0,.02,1.1,0,2v84c0,1.05.95,2,2,2h62c1.05,0,2-.95,2-2V2C66,.95,65.05,0,64,0ZM62,84H4V4h58v80Z"/>
      <path class="cls-2" d="M11,14h44c1.1,0,2-.9,2-2s-.9-2-2-2H11c-1.1,0-2,.9-2,2s.9,2,2,2Z"/>
      <path class="cls-2" d="M11,23h44c1.1,0,2-.9,2-2s-.9-2-2-2H11c-1.1,0-2,.9-2,2s.9,2,2,2Z"/>
      <path class="cls-2" d="M11,32h44c1.1,0,2-.9,2-2s-.9-2-2-2H11c-1.1,0-2,.9-2,2s.9,2,2,2Z"/>
    </g>
    <path class="cls-1" d="M44.42,46.28l-9.18-3.94c-.77-.33-1.64-.33-2.41,0l-9.18,3.94c-1.13.48-1.86,1.59-1.86,2.81v12.79c0,.94.43,1.83,1.17,2.41l9.18,7.21c1.11.87,2.67.87,3.78,0l9.18-7.21c.74-.58,1.17-1.47,1.17-2.41v-12.79c0-1.22-.73-2.33-1.86-2.81ZM31.73,61.72l-4.91-4.91,2.16-2.16,2.74,2.74,7.33-7.33,2.16,2.16-9.5,9.5Z"/>
  </g>
</svg>