<?xml version="1.0" encoding="UTF-8"?>
<svg id="Layer_2" data-name="Layer 2" xmlns="http://www.w3.org/2000/svg" viewBox="0 0 77.78 92.58">
  <defs>
    <style>
      .cls-1 {
        fill: #fff;
      }

      .cls-2 {
        fill: #a8b8d4;
      }
    </style>
  </defs>
  <g id="Layer_1-2" data-name="Layer 1">
    <path class="cls-1" d="M77.78,40.96v-20.59c0-.7-.39-1.35-1.02-1.65L39.73.19c-.52-.26-1.13-.26-1.65,0L1.04,18.71c-.65.3-1.04.95-1.04,1.65v20.59c0,23.94,15.41,44.67,38.3,51.54.2.05.39.09.59.09.18,0,.37-.04.55-.09,22.93-6.89,38.34-27.59,38.34-51.53h0ZM38.89,88.79C17.82,82.23,3.71,63.08,3.71,40.96v-19.44L38.89,3.92l35.18,17.59v19.44c0,22.13-14.11,41.28-35.18,47.83ZM70.37,24.94v16.02c0,19.93-12.11,37.09-30.87,43.72-.2.07-.41.11-.61.11s-.43-.04-.61-.11c-18.76-6.63-30.87-23.78-30.87-43.72v-16.02c0-1.02.83-1.85,1.85-1.85s1.85.83,1.85,1.85v16.02c0,18.13,10.89,33.76,27.78,40.02,16.89-6.26,27.78-21.89,27.78-40.02v-14.87l-27.78-13.89-21.39,10.7c-.93.46-2.04.09-2.48-.83-.46-.91-.09-2.02.83-2.48l22.22-11.11c.52-.26,1.13-.26,1.65,0l29.63,14.82c.63.31,1.02.94,1.02,1.64h0Z"/>
    <path class="cls-2" d="M27.41,38.34h22.95v3.83h-22.95v-3.83ZM27.41,48.54h22.95v-3.83h-22.95v3.83ZM57.37,34.68l-17.85-10.2c-.39-.22-.87-.22-1.27,0l-17.85,10.2c-.29.17-.51.45-.6.77-.09.33-.04.68.12.97.21.36.6.59,1.02.62v24.25c0,.34.13.66.37.9.24.24.56.37.9.37h2.64v-25.5c0-.34.13-.66.37-.9.24-.24.56-.37.9-.37h25.5c.34,0,.66.13.9.37.24.24.37.56.37.9v25.5h2.64c.34,0,.66-.13.9-.37.24-.24.37-.56.37-.9v-24.24c.56-.04,1.03-.44,1.15-.98.12-.55-.13-1.11-.61-1.39h0ZM27.41,62.57h22.95v-5.1h-22.95v5.1ZM27.41,54.92h22.95v-3.83h-22.95v3.83Z"/>
  </g>
</svg>