<?xml version="1.0" encoding="UTF-8"?>
<svg id="Layer_2" data-name="Layer 2" xmlns="http://www.w3.org/2000/svg" viewBox="0 0 66.81 89.99">
  <defs>
    <style>
      .cls-1 {
        fill: #fff;
      }

      .cls-2 {
        fill: #a8b8d4;
      }
    </style>
  </defs>
  <g id="Layer_1-2" data-name="Layer 1">
    <g>
      <path class="cls-1" d="M66.71,79.47l-8.4-23.3c.54-.32,1.03-.73,1.46-1.26,1.13-1.4,1.28-3.08,1.44-4.76.09-.96.18-1.92.48-2.53.29-.59.99-1.26,1.7-1.92,1.24-1.18,2.5-2.37,2.92-4.17.42-1.78-.15-3.4-.73-5.04-.34-.96-.68-1.92-.68-2.7s.34-1.74.68-2.7c.58-1.64,1.15-3.26.73-5.04-.42-1.81-1.68-2.99-2.92-4.17-.71-.67-1.41-1.33-1.7-1.92-.3-.61-.39-1.57-.48-2.53-.16-1.68-.31-3.36-1.44-4.76-1.12-1.4-2.73-1.91-4.34-2.43-.91-.29-1.81-.58-2.34-1-.52-.42-1-1.24-1.49-2.07-.85-1.46-1.71-2.92-3.35-3.72-1.64-.8-3.31-.59-4.99-.38-.98.12-1.97.24-2.65.08-.67-.16-1.5-.69-2.33-1.22-1.48-.95-2.98-1.92-4.89-1.92s-3.41.97-4.89,1.92c-.83.53-1.65,1.06-2.33,1.22-.69.16-1.67.04-2.65-.08-1.68-.21-3.35-.42-4.99.38-1.64.8-2.49,2.26-3.35,3.72-.48.82-.97,1.65-1.49,2.07-.52.42-1.43.71-2.34,1-1.6.51-3.21,1.03-4.34,2.43-1.13,1.4-1.28,3.08-1.44,4.76-.09.96-.18,1.92-.48,2.53-.29.59-.99,1.26-1.7,1.92-1.24,1.18-2.5,2.37-2.92,4.17-.42,1.78.16,3.4.73,5.04.34.96.68,1.92.68,2.7s-.34,1.74-.68,2.7c-.58,1.64-1.15,3.26-.73,5.04.42,1.81,1.68,2.99,2.92,4.17.71.67,1.41,1.33,1.7,1.92.3.61.39,1.57.48,2.53.16,1.68.31,3.36,1.44,4.76.43.53.92.93,1.46,1.26L.11,79.47c-.34.96.16,2.02,1.11,2.36.38.14.78.14,1.14.04l12.79-3.71,7.48,11.02c.57.84,1.72,1.06,2.56.49.34-.23.57-.55.7-.91l7.5-20.82h0l7.51,20.82c.13.36.36.68.7.91.84.57,1.99.35,2.56-.49l7.48-11.02,12.8,3.71c.36.1.76.1,1.14-.04.96-.34,1.46-1.4,1.11-2.36ZM23.66,84.11l-6.16-9.07c-.43-.69-1.27-1.04-2.09-.8l-10.6,3.08,7.13-19.78h0c.71.23,1.36.48,1.77.82.52.42,1,1.24,1.49,2.07.85,1.46,1.71,2.92,3.35,3.72,1.64.8,3.31.59,4.99.38.98-.12,1.96-.24,2.65-.08.67.16,1.5.69,2.32,1.22.48.31.97.62,1.47.9l-6.33,17.55ZM33.41,63.87c-.83,0-1.87-.67-2.89-1.33-1.1-.71-2.19-1.41-3.48-1.71-1.34-.31-2.64-.15-3.94.01-1.15.14-2.29.29-2.92-.02-.63-.31-1.21-1.29-1.78-2.27-.66-1.12-1.31-2.24-2.35-3.08-1.05-.84-2.29-1.24-3.54-1.64-1.07-.34-2.13-.68-2.57-1.23-.43-.54-.54-1.66-.64-2.78-.12-1.3-.24-2.6-.84-3.82-.59-1.21-1.53-2.09-2.47-2.98-.84-.8-1.69-1.6-1.87-2.33-.17-.73.22-1.85.62-2.97.45-1.26.9-2.54.9-3.93s-.45-2.66-.9-3.93c-.4-1.13-.79-2.24-.62-2.97.17-.73,1.02-1.53,1.87-2.33.94-.89,1.87-1.77,2.47-2.98.6-1.22.72-2.52.84-3.82.1-1.12.21-2.24.64-2.78.44-.54,1.5-.89,2.57-1.23,1.25-.4,2.49-.8,3.54-1.64,1.04-.84,1.7-1.96,2.35-3.08.57-.98,1.15-1.96,1.78-2.27.63-.31,1.77-.16,2.92-.02,1.3.16,2.6.33,3.94.01,1.3-.3,2.39-1.01,3.48-1.71,1.02-.66,2.06-1.33,2.89-1.33s1.87.67,2.89,1.33c1.1.71,2.19,1.41,3.48,1.71,1.34.31,2.64.15,3.94-.01,1.15-.14,2.29-.29,2.92.02.63.31,1.21,1.29,1.78,2.27.66,1.12,1.31,2.24,2.35,3.08,1.05.84,2.29,1.24,3.54,1.64,1.07.34,2.13.68,2.57,1.23.43.54.54,1.66.64,2.78.12,1.3.24,2.6.84,3.82.59,1.21,1.53,2.09,2.47,2.98.84.8,1.69,1.6,1.86,2.33.17.73-.22,1.85-.62,2.97-.45,1.26-.9,2.54-.9,3.93s.45,2.66.9,3.93c.4,1.13.79,2.24.62,2.97-.17.73-1.02,1.53-1.86,2.33-.94.89-1.87,1.77-2.47,2.98-.6,1.22-.72,2.52-.84,3.82-.1,1.12-.21,2.24-.64,2.78-.44.54-1.5.89-2.57,1.23-1.25.4-2.49.8-3.54,1.64-1.04.84-1.7,1.96-2.35,3.08-.57.98-1.15,1.96-1.78,2.27-.63.31-1.77.16-2.92.02-1.3-.16-2.6-.32-3.94-.01-1.3.3-2.39,1.01-3.48,1.71-1.02.66-2.06,1.33-2.89,1.33ZM51.4,74.24c-.81-.24-1.66.11-2.09.8l-6.16,9.07-6.33-17.55c.5-.28.98-.59,1.47-.9.83-.53,1.65-1.06,2.32-1.22.69-.16,1.67-.04,2.65.08,1.68.21,3.36.42,4.99-.38,1.64-.8,2.49-2.26,3.35-3.72.48-.83.96-1.65,1.49-2.07.41-.33,1.07-.58,1.77-.82l7.13,19.78-10.6-3.08Z"/>
      <path class="cls-2" d="M48.66,18.53c-3.9-3.9-9.29-6.32-15.25-6.32s-11.35,2.41-15.25,6.32c-3.9,3.9-6.32,9.3-6.32,15.25s2.41,11.35,6.32,15.25,9.29,6.32,15.25,6.32,11.35-2.41,15.25-6.32,6.32-9.29,6.32-15.25-2.41-11.35-6.32-15.25ZM46.3,31.53c-.06.49-.3.91-.66,1.2l-4.86,4.56,1.27,6.66c.19,1-.47,1.97-1.47,2.17-.44.08-.88,0-1.24-.2l-5.94-3.27-5.94,3.27c-.9.49-2.02.16-2.51-.73-.22-.39-.27-.83-.2-1.24l1.27-6.66-4.95-4.64c-.74-.7-.78-1.87-.08-2.61.31-.33.71-.52,1.12-.57h0s6.72-.85,6.72-.85l2.88-6.13c.43-.92,1.53-1.32,2.46-.89.41.19.71.51.89.89h0s2.88,6.12,2.88,6.12l6.72.85c1.02.12,1.74,1.05,1.61,2.06Z"/>
    </g>
  </g>
</svg>