<?xml version="1.0" encoding="UTF-8"?>
<svg id="Layer_2" data-name="Layer 2" xmlns="http://www.w3.org/2000/svg" viewBox="0 0 78.56 92.17">
  <defs>
    <style>
      .cls-1 {
        fill: #fff;
      }
    </style>
  </defs>
  <g id="Layer_1-2" data-name="Layer 1">
    <g>
      <path d="M0,30.53c0-.13,0-.26,0-.39.05-.12.14-.23.15-.35.86-6.93,1.72-13.86,2.58-20.8.15-1.24.33-2.47.5-3.73.29,0,.49-.02.67,0,3.68.54,7.35,1.09,11.03,1.64,5.44.81,10.87,1.62,16.31,2.41,6.4.94,12.8,1.86,19.19,2.79,6.46.95,12.92,1.92,19.38,2.85.73.1.96.34.95,1.09-.03,7.62-.02,15.23-.02,22.85,0,.27-.04.55-.06.89-5.1-.66-10.1-1.31-15.1-1.96-4.68-.61-9.36-1.24-14.04-1.85-4.26-.56-8.53-1.11-12.79-1.67-4.62-.61-9.23-1.22-13.85-1.82-4.97-.65-9.94-1.3-14.91-1.95Z"/>
      <path d="M70.78,92.17h-.58c-.62-.13-1.24-.29-1.87-.38-5.12-.75-10.24-1.49-15.35-2.24-5.09-.74-10.17-1.49-15.25-2.24-5.12-.75-10.24-1.48-15.35-2.23-5.6-.81-11.2-1.63-16.79-2.45-1.72-.25-3.43-.51-5.25-.78.89-7.96,1.76-15.82,2.64-23.72,22.65,2.98,45.2,5.94,67.79,8.91,0,.54,0,.92,0,1.31,0,7.94.02,15.88.03,23.81Z"/>
      <path d="M73.51,92.17c0-5.99-.01-11.99-.01-17.98,0-19.51,0-39.01-.02-58.52,0-.77.21-1.24.87-1.64,1.43-.88,2.81-1.83,4.22-2.76v80.12c-1.56.26-3.11.52-4.67.78h-.39Z"/>
      <path d="M14.2,0c2,.32,4,.67,6.01.97,5.08.76,10.17,1.5,15.25,2.24,5.53.81,11.06,1.62,16.59,2.43,5.47.8,10.93,1.61,16.4,2.41,2.59.38,5.17.77,7.76,1.15.09.1.18.2.27.29-.21.07-.42.14-.62.22-.09.04-.16.11-.24.16-1.36.86-2.62,2.13-4.1,2.45-1.45.32-3.11-.32-4.68-.55-5.6-.82-11.19-1.64-16.78-2.46-5.43-.8-10.87-1.61-16.3-2.41-5.56-.82-11.13-1.63-16.69-2.45-3.54-.52-7.07-1.05-10.84-1.61,2.61-1,5-1.93,7.39-2.85.19,0,.39,0,.58,0Z"/>
      <path class="cls-1" d="M73.89,92.17c1.56-.26,3.11-.52,4.67-.78v.78h-4.67Z"/>
      <path d="M.42,55.04c.5-7.19.99-14.26,1.5-21.48,22.98,3.01,45.86,6,68.78,9v21.72c-23.44-3.08-46.81-6.15-70.28-9.23Z"/>
    </g>
  </g>
</svg>