<svg xmlns:ns0="http://www.w3.org/2000/svg" xmlns="http://www.w3.org/2000/svg" style="display: none;"><symbol id="checkmark" viewBox="0 0 62.12 62.12"><ns0:defs>
    <ns0:style>
      .cls-1 {
        fill: #010101;
      }
    </ns0:style>
  </ns0:defs>
  <ns0:g id="Layer_1-2" data-name="Layer 1">
    <ns0:path class="cls-1" d="M31.06,0C13.91,0,0,13.91,0,31.06s13.91,31.06,31.06,31.06,31.06-13.91,31.06-31.06S48.22,0,31.06,0ZM44.47,17.29l4.25,3.88-23.3,25.78-12.01-12.01,4.07-4.07,7.58,7.58,19.41-21.17h0Z" />
  </ns0:g>
</symbol><symbol id="door" viewBox="0 0 71.59 92.32"><ns0:defs>
    <ns0:style>
      .cls-1 {
        fill: #25272c;
      }
    </ns0:style>
  </ns0:defs>
  <ns0:g id="Layer_1-2" data-name="Layer 1">
    <ns0:g>
      <ns0:path class="cls-1" d="M15.26,92.32h41.07V17.54H15.26v74.78ZM46.11,48.95c1.84,0,3.33,1.49,3.33,3.33s-1.49,3.33-3.33,3.33-3.32-1.49-3.32-3.33,1.49-3.33,3.32-3.33Z" />
      <ns0:polygon class="cls-1" points="0 12.75 2.35 12.75 2.35 92.32 9.91 92.32 9.91 12.75 61.68 12.75 61.68 92.32 69.24 92.32 69.24 12.75 71.59 12.75 71.59 0 0 0 0 12.75" />
    </ns0:g>
  </ns0:g>
</symbol><symbol id="garage" viewBox="0 0 71.13 86.6"><ns0:defs>
    <ns0:style>
      .cls-1 {
        fill: #010101;
      }
    </ns0:style>
  </ns0:defs>
  <ns0:g id="Layer_1-2" data-name="Layer 1">
    <ns0:path class="cls-1" d="M0,26.6h71.12v-9.64L35.57,0,0,16.96v9.64h0ZM0,86.6h4.2v-46.84c0-.83.67-1.5,1.5-1.5h59.72c.83,0,1.5.67,1.5,1.5v46.85h4.2V29.61H0v57h0ZM7.2,86.6h56.72v-12.76H7.2v12.76ZM7.2,70.84h56.72v-4.77H7.2v4.77ZM7.2,63.07h56.72v-4.77H7.2v4.77ZM7.2,55.3h56.72v-4.77H7.2v4.77ZM7.2,47.53h56.72v-6.28H7.2v6.28Z" />
  </ns0:g>
</symbol><symbol id="siding" viewBox="0 0 78.56 92.17"><ns0:defs>
    <ns0:style>
      .cls-1 {
        fill: #fff;
      }
    </ns0:style>
  </ns0:defs>
  <ns0:g id="Layer_1-2" data-name="Layer 1">
    <ns0:g>
      <ns0:path d="M0,30.53c0-.13,0-.26,0-.39.05-.12.14-.23.15-.35.86-6.93,1.72-13.86,2.58-20.8.15-1.24.33-2.47.5-3.73.29,0,.49-.02.67,0,3.68.54,7.35,1.09,11.03,1.64,5.44.81,10.87,1.62,16.31,2.41,6.4.94,12.8,1.86,19.19,2.79,6.46.95,12.92,1.92,19.38,2.85.73.1.96.34.95,1.09-.03,7.62-.02,15.23-.02,22.85,0,.27-.04.55-.06.89-5.1-.66-10.1-1.31-15.1-1.96-4.68-.61-9.36-1.24-14.04-1.85-4.26-.56-8.53-1.11-12.79-1.67-4.62-.61-9.23-1.22-13.85-1.82-4.97-.65-9.94-1.3-14.91-1.95Z" />
      <ns0:path d="M70.78,92.17h-.58c-.62-.13-1.24-.29-1.87-.38-5.12-.75-10.24-1.49-15.35-2.24-5.09-.74-10.17-1.49-15.25-2.24-5.12-.75-10.24-1.48-15.35-2.23-5.6-.81-11.2-1.63-16.79-2.45-1.72-.25-3.43-.51-5.25-.78.89-7.96,1.76-15.82,2.64-23.72,22.65,2.98,45.2,5.94,67.79,8.91,0,.54,0,.92,0,1.31,0,7.94.02,15.88.03,23.81Z" />
      <ns0:path d="M73.51,92.17c0-5.99-.01-11.99-.01-17.98,0-19.51,0-39.01-.02-58.52,0-.77.21-1.24.87-1.64,1.43-.88,2.81-1.83,4.22-2.76v80.12c-1.56.26-3.11.52-4.67.78h-.39Z" />
      <ns0:path d="M14.2,0c2,.32,4,.67,6.01.97,5.08.76,10.17,1.5,15.25,2.24,5.53.81,11.06,1.62,16.59,2.43,5.47.8,10.93,1.61,16.4,2.41,2.59.38,5.17.77,7.76,1.15.09.1.18.2.27.29-.21.07-.42.14-.62.22-.09.04-.16.11-.24.16-1.36.86-2.62,2.13-4.1,2.45-1.45.32-3.11-.32-4.68-.55-5.6-.82-11.19-1.64-16.78-2.46-5.43-.8-10.87-1.61-16.3-2.41-5.56-.82-11.13-1.63-16.69-2.45-3.54-.52-7.07-1.05-10.84-1.61,2.61-1,5-1.93,7.39-2.85.19,0,.39,0,.58,0Z" />
      <ns0:path class="cls-1" d="M73.89,92.17c1.56-.26,3.11-.52,4.67-.78v.78h-4.67Z" />
      <ns0:path d="M.42,55.04c.5-7.19.99-14.26,1.5-21.48,22.98,3.01,45.86,6,68.78,9v21.72c-23.44-3.08-46.81-6.15-70.28-9.23Z" />
    </ns0:g>
  </ns0:g>
</symbol><symbol id="star" viewBox="0 0 32 32"><ns0:title>star</ns0:title>
<ns0:path d="M3.488 13.184l6.272 6.112-1.472 8.608 7.712-4.064 7.712 4.064-1.472-8.608 6.272-6.112-8.64-1.248-3.872-7.808-3.872 7.808z" />
</symbol><symbol id="window" viewBox="0 0 93.75 93.75"><ns0:defs>
    <ns0:style>
      .cls-1 {
        fill: #010101;
      }
    </ns0:style>
  </ns0:defs>
  <ns0:g id="Layer_1-2" data-name="Layer 1">
    <ns0:g>
      <ns0:path class="cls-1" d="M87.5,81.25h-1.56V1.56c0-.86-.7-1.56-1.56-1.56H9.38c-.86,0-1.56.7-1.56,1.56v79.69h-1.56c-3.45,0-6.25,2.8-6.25,6.25s2.8,6.25,6.25,6.25h81.25c3.45,0,6.25-2.8,6.25-6.25s-2.8-6.25-6.25-6.25ZM48.44,7.81c0-.86.7-1.56,1.56-1.56h28.13c.86,0,1.56.7,1.56,1.56v31.25c0,.86-.7,1.56-1.56,1.56h-28.12c-.86,0-1.56-.7-1.56-1.56V7.81ZM48.44,45.31c0-.86.7-1.56,1.56-1.56h28.13c.86,0,1.56.7,1.56,1.56v31.25c0,.86-.7,1.56-1.56,1.56h-28.12c-.86,0-1.56-.7-1.56-1.56v-31.25ZM14.06,7.81c0-.86.7-1.56,1.56-1.56h28.12c.86,0,1.56.7,1.56,1.56v31.25c0,.86-.7,1.56-1.56,1.56H15.63c-.86,0-1.56-.7-1.56-1.56V7.81ZM14.06,45.31c0-.86.7-1.56,1.56-1.56h28.12c.86,0,1.56.7,1.56,1.56v31.25c0,.86-.7,1.56-1.56,1.56H15.63c-.86,0-1.56-.7-1.56-1.56v-31.25Z" />
      <ns0:path class="cls-1" d="M20.51,18.12l6.97-5.82c.66-.55,1.75-.34,2.2.2.55.66.46,1.65-.2,2.2l-6.97,5.82c-.66.55-1.75.34-2.2-.2-.55-.66-.46-1.65.2-2.2Z" />
      <ns0:path class="cls-1" d="M29.89,30.62l6.97-5.82c.66-.55,1.75-.34,2.2.2.55.66.46,1.65-.2,2.2l-6.97,5.82c-.66.55-1.75.34-2.2-.2-.55-.66-.46-1.65.2-2.2Z" />
      <ns0:path class="cls-1" d="M20.51,28.27l16.34-13.63c.66-.55,1.75-.34,2.2.2.55.66.46,1.65-.2,2.2l-16.34,13.63c-.66.55-1.75.34-2.2-.2-.55-.66-.46-1.65.2-2.2Z" />
      <ns0:path class="cls-1" d="M64.25,68.12l6.97-5.82c.66-.55,1.75-.34,2.2.2.55.66.46,1.65-.2,2.2l-6.97,5.82c-.66.55-1.75.34-2.2-.2-.55-.66-.46-1.65.2-2.2Z" />
      <ns0:path class="cls-1" d="M54.9,65.77l16.34-13.63c.66-.55,1.75-.34,2.2.2.55.66.46,1.65-.2,2.2l-16.34,13.63c-.66.55-1.75.34-2.2-.2-.55-.66-.46-1.65.2-2.2Z" />
    </ns0:g>
  </ns0:g>
</symbol></svg>