<svg width="0" height="0" class="hidden">
  <symbol id="cost-savings-icon" xmlns="http://www.w3.org/2000/svg" viewBox="0 0 84.26 95">
    <defs></defs>
    <g id="Layer_1-2">
      <g>
        <path d="M62.61,37.4c0-11.3-9.2-20.5-20.5-20.5s-20.5,9.2-20.5,20.5,9.2,20.5,20.5,20.5,20.5-9.2,20.5-20.5ZM44.01,47.2v2.9h-3.6v-2.9c-3.1-.2-5.5-2.7-5.5-5.8h3.6c0,1.2,1,2.2,2.2,2.2h2.9c1.2,0,2.2-1,2.2-2.2s-1-2.2-2.2-2.2h-2.9c-3.3,0-5.9-2.7-5.9-5.9s2.4-5.6,5.5-5.8v-2.9h3.6v2.9c3.1.2,5.5,2.7,5.5,5.8h-3.6c0-1.2-1-2.2-2.2-2.2h-2.9c-1.3,0-2.3,1-2.2,2.2,0,1.2,1,2.2,2.2,2.2h2.9c3.3,0,5.9,2.7,5.9,5.9s-2.4,5.6-5.5,5.8Z"></path>
        <path d="M35.61,80.3l-2-10.8c-.6-3.4-2.3-6.5-4.8-8.8l-8.9-8.3c-.5-.5-1.1-.8-1.7-1l-2-15.5c-.2-1.7-1.1-3.2-2.5-4.2-1.4-1-3.1-1.4-4.7-1.1-2.5.5-4.6,2.5-5,5L.21,56.3c-.6,3.6.1,7.2,2.2,10.1l10.1,14.5c-.4.4-.6.9-.6,1.4v10.7c0,1.1.9,2,2,2h21.6c1.1,0,2-.9,2-2v-10.7c0-1.1-.8-2-1.9-2ZM5.71,64.1c-1.4-2.1-2-4.6-1.5-7.1l3.7-20.7c.2-.9.9-1.6,1.7-1.7.6-.1,1.2,0,1.6.4.5.3.8.9.9,1.5l2,15.2c-.6.3-1.1.6-1.5,1.1-1.6,1.7-1.7,4.3-.4,6.3l7.5,11.1c.6.9,1.9,1.2,2.8.5.9-.6,1.2-1.9.5-2.8l-7.6-11.2c-.3-.4-.2-.9.1-1.3.2-.3.5-.3.7-.3s.5,0,.7.3l8.9,8.3c1.9,1.8,3.1,4.1,3.6,6.6l1.9,10h-14.4l-11.2-16.2ZM33.51,91H15.91v-6.6h17.6v6.6Z"></path>
        <path d="M80.31,35.6c-.5-2.5-2.5-4.5-5-5-1.7-.3-3.4.1-4.7,1.1-1.4,1-2.3,2.5-2.5,4.2l-2,15.5c-.6.2-1.2.6-1.7,1l-8.9,8.3c-2.5,2.4-4.2,5.4-4.8,8.8l-2,10.8c-1.1.1-1.9.9-1.9,2v10.7c0,1.1.9,2,2,2h21.6c1.1,0,2-.9,2-2v-10.7c0-.6-.2-1.1-.6-1.4l10.1-14.5c2-3,2.8-6.6,2.1-10.1l-3.7-20.7ZM68.31,91h-17.6v-6.6h17.6v6.6ZM78.51,64.1l-11.2,16.2h-14.6l1.9-10c.5-2.5,1.7-4.8,3.6-6.6l8.9-8.3c.3-.3.6-.3.7-.3.2,0,.5.1.7.3.3.4.3.9.1,1.3l-7.5,11.1c-.6.9-.4,2.2.5,2.8.9.6,2.2.4,2.8-.5l7.6-11.1c1.3-1.9,1.1-4.5-.4-6.3-.4-.5-1-.8-1.5-1.1l2-15.2c.1-.6.4-1.1.9-1.5.5-.3,1.1-.5,1.6-.4.9.2,1.6.8,1.7,1.7l3.7,20.7c.5,2.6,0,5.1-1.5,7.2Z"></path>
        <path d="M42.11,12.5c1.1,0,2-.9,2-2V2c0-1.1-.9-2-2-2s-2,.9-2,2v8.5c0,1.1.9,2,2,2Z"></path>
        <path d="M52.41,14.6c.3.1.5.2.8.2.8,0,1.5-.5,1.9-1.2l3.2-7.8c.4-1-.1-2.2-1.1-2.6-1-.4-2.2.1-2.6,1.1l-3.2,7.8c-.5.9,0,2,1,2.5Z"></path>
        <path d="M29.21,13.5c.3.8,1.1,1.2,1.9,1.2.3,0,.5,0,.8-.2,1-.4,1.5-1.6,1.1-2.6l-3.2-7.8c-.4-1-1.6-1.5-2.6-1.1s-1.5,1.6-1.1,2.6l3.1,7.9Z"></path>
      </g>
    </g>
  </symbol>
  <symbol id="door-icon" xmlns="http://www.w3.org/2000/svg" viewBox="0 0 71.59 92.32">
    <defs></defs>
    <g id="Layer_1-2">
      <g>
        <path d="M15.26,92.32h41.07V17.54H15.26v74.78ZM46.11,48.95c1.84,0,3.33,1.49,3.33,3.33s-1.49,3.33-3.33,3.33-3.32-1.49-3.32-3.33,1.49-3.33,3.32-3.33Z"></path>
        <polygon points="0 12.75 2.35 12.75 2.35 92.32 9.91 92.32 9.91 12.75 61.68 12.75 61.68 92.32 69.24 92.32 69.24 12.75 71.59 12.75 71.59 0 0 0 0 12.75"></polygon>
      </g>
    </g>
  </symbol>
  <symbol id="garage-icon" xmlns="http://www.w3.org/2000/svg" viewBox="0 0 71.13 86.6">
    <defs></defs>
    <g id="Layer_1-2">
      <path d="M0,26.6h71.12v-9.64L35.57,0,0,16.96v9.64h0ZM0,86.6h4.2v-46.84c0-.83.67-1.5,1.5-1.5h59.72c.83,0,1.5.67,1.5,1.5v46.85h4.2V29.61H0v57h0ZM7.2,86.6h56.72v-12.76H7.2v12.76ZM7.2,70.84h56.72v-4.77H7.2v4.77ZM7.2,63.07h56.72v-4.77H7.2v4.77ZM7.2,55.3h56.72v-4.77H7.2v4.77ZM7.2,47.53h56.72v-6.28H7.2v6.28Z"></path>
    </g>
  </symbol>
  <symbol id="hassle-free-icon" xmlns="http://www.w3.org/2000/svg" viewBox="0 0 66 88">
    <defs></defs>
    <g id="Layer_1-2">
      <g>
        <path d="M64,0H2C.93,0,.02,1.1,0,2v84c0,1.05.95,2,2,2h62c1.05,0,2-.95,2-2V2C66,.95,65.05,0,64,0ZM62,84H4V4h58v80Z"></path>
        <path d="M11,14h44c1.1,0,2-.9,2-2s-.9-2-2-2H11c-1.1,0-2,.9-2,2s.9,2,2,2Z"></path>
        <path d="M11,23h44c1.1,0,2-.9,2-2s-.9-2-2-2H11c-1.1,0-2,.9-2,2s.9,2,2,2Z"></path>
        <path d="M11,32h44c1.1,0,2-.9,2-2s-.9-2-2-2H11c-1.1,0-2,.9-2,2s.9,2,2,2Z"></path>
      </g>
      <path d="M44.42,46.28l-9.18-3.94c-.77-.33-1.64-.33-2.41,0l-9.18,3.94c-1.13.48-1.86,1.59-1.86,2.81v12.79c0,.94.43,1.83,1.17,2.41l9.18,7.21c1.11.87,2.67.87,3.78,0l9.18-7.21c.74-.58,1.17-1.47,1.17-2.41v-12.79c0-1.22-.73-2.33-1.86-2.81ZM31.73,61.72l-4.91-4.91,2.16-2.16,2.74,2.74,7.33-7.33,2.16,2.16-9.5,9.5Z"></path>
    </g>
  </symbol>
  <symbol version="1.1" xmlns="http://www.w3.org/2000/svg" viewBox="2 2 28 28" id="location-pin-icon">
    <path d="M16.114-0.011c-6.559 0-12.114 5.587-12.114 12.204 0 6.93 6.439 14.017 10.77 18.998 0.017 0.020 0.717 0.797 1.579 0.797h0.076c0.863 0 1.558-0.777 1.575-0.797 4.064-4.672 10-12.377 10-18.998 0-6.618-4.333-12.204-11.886-12.204zM16.515 29.849c-0.035 0.035-0.086 0.074-0.131 0.107-0.046-0.032-0.096-0.072-0.133-0.107l-0.523-0.602c-4.106-4.71-9.729-11.161-9.729-17.055 0-5.532 4.632-10.205 10.114-10.205 6.829 0 9.886 5.125 9.886 10.205 0 4.474-3.192 10.416-9.485 17.657zM16.035 6.044c-3.313 0-6 2.686-6 6s2.687 6 6 6 6-2.687 6-6-2.686-6-6-6zM16.035 16.044c-2.206 0-4.046-1.838-4.046-4.044s1.794-4 4-4c2.207 0 4 1.794 4 4 0.001 2.206-1.747 4.044-3.954 4.044z"></path>
  </symbol>
  <symbol id="protected-icon" xmlns="http://www.w3.org/2000/svg" viewBox="0 0 77.78 92.58">
    <defs></defs>
    <g id="Layer_1-2">
      <path d="M77.78,40.96v-20.59c0-.7-.39-1.35-1.02-1.65L39.73.19c-.52-.26-1.13-.26-1.65,0L1.04,18.71c-.65.3-1.04.95-1.04,1.65v20.59c0,23.94,15.41,44.67,38.3,51.54.2.05.39.09.59.09.18,0,.37-.04.55-.09,22.93-6.89,38.34-27.59,38.34-51.53h0ZM38.89,88.79C17.82,82.23,3.71,63.08,3.71,40.96v-19.44L38.89,3.92l35.18,17.59v19.44c0,22.13-14.11,41.28-35.18,47.83ZM70.37,24.94v16.02c0,19.93-12.11,37.09-30.87,43.72-.2.07-.41.11-.61.11s-.43-.04-.61-.11c-18.76-6.63-30.87-23.78-30.87-43.72v-16.02c0-1.02.83-1.85,1.85-1.85s1.85.83,1.85,1.85v16.02c0,18.13,10.89,33.76,27.78,40.02,16.89-6.26,27.78-21.89,27.78-40.02v-14.87l-27.78-13.89-21.39,10.7c-.93.46-2.04.09-2.48-.83-.46-.91-.09-2.02.83-2.48l22.22-11.11c.52-.26,1.13-.26,1.65,0l29.63,14.82c.63.31,1.02.94,1.02,1.64h0Z"></path>
      <path d="M27.41,38.34h22.95v3.83h-22.95v-3.83ZM27.41,48.54h22.95v-3.83h-22.95v3.83ZM57.37,34.68l-17.85-10.2c-.39-.22-.87-.22-1.27,0l-17.85,10.2c-.29.17-.51.45-.6.77-.09.33-.04.68.12.97.21.36.6.59,1.02.62v24.25c0,.34.13.66.37.9.24.24.56.37.9.37h2.64v-25.5c0-.34.13-.66.37-.9.24-.24.56-.37.9-.37h25.5c.34,0,.66.13.9.37.24.24.37.56.37.9v25.5h2.64c.34,0,.66-.13.9-.37.24-.24.37-.56.37-.9v-24.24c.56-.04,1.03-.44,1.15-.98.12-.55-.13-1.11-.61-1.39h0ZM27.41,62.57h22.95v-5.1h-22.95v5.1ZM27.41,54.92h22.95v-3.83h-22.95v3.83Z"></path>
    </g>
  </symbol>
  <symbol id="quality-guarantee-icon" xmlns="http://www.w3.org/2000/svg" viewBox="0 0 66.81 89.99">
    <defs></defs>
    <g id="Layer_1-2">
      <g>
        <path d="M66.71,79.47l-8.4-23.3c.54-.32,1.03-.73,1.46-1.26,1.13-1.4,1.28-3.08,1.44-4.76.09-.96.18-1.92.48-2.53.29-.59.99-1.26,1.7-1.92,1.24-1.18,2.5-2.37,2.92-4.17.42-1.78-.15-3.4-.73-5.04-.34-.96-.68-1.92-.68-2.7s.34-1.74.68-2.7c.58-1.64,1.15-3.26.73-5.04-.42-1.81-1.68-2.99-2.92-4.17-.71-.67-1.41-1.33-1.7-1.92-.3-.61-.39-1.57-.48-2.53-.16-1.68-.31-3.36-1.44-4.76-1.12-1.4-2.73-1.91-4.34-2.43-.91-.29-1.81-.58-2.34-1-.52-.42-1-1.24-1.49-2.07-.85-1.46-1.71-2.92-3.35-3.72-1.64-.8-3.31-.59-4.99-.38-.98.12-1.97.24-2.65.08-.67-.16-1.5-.69-2.33-1.22-1.48-.95-2.98-1.92-4.89-1.92s-3.41.97-4.89,1.92c-.83.53-1.65,1.06-2.33,1.22-.69.16-1.67.04-2.65-.08-1.68-.21-3.35-.42-4.99.38-1.64.8-2.49,2.26-3.35,3.72-.48.82-.97,1.65-1.49,2.07-.52.42-1.43.71-2.34,1-1.6.51-3.21,1.03-4.34,2.43-1.13,1.4-1.28,3.08-1.44,4.76-.09.96-.18,1.92-.48,2.53-.29.59-.99,1.26-1.7,1.92-1.24,1.18-2.5,2.37-2.92,4.17-.42,1.78.16,3.4.73,5.04.34.96.68,1.92.68,2.7s-.34,1.74-.68,2.7c-.58,1.64-1.15,3.26-.73,5.04.42,1.81,1.68,2.99,2.92,4.17.71.67,1.41,1.33,1.7,1.92.3.61.39,1.57.48,2.53.16,1.68.31,3.36,1.44,4.76.43.53.92.93,1.46,1.26L.11,79.47c-.34.96.16,2.02,1.11,2.36.38.14.78.14,1.14.04l12.79-3.71,7.48,11.02c.57.84,1.72,1.06,2.56.49.34-.23.57-.55.7-.91l7.5-20.82h0l7.51,20.82c.13.36.36.68.7.91.84.57,1.99.35,2.56-.49l7.48-11.02,12.8,3.71c.36.1.76.1,1.14-.04.96-.34,1.46-1.4,1.11-2.36ZM23.66,84.11l-6.16-9.07c-.43-.69-1.27-1.04-2.09-.8l-10.6,3.08,7.13-19.78h0c.71.23,1.36.48,1.77.82.52.42,1,1.24,1.49,2.07.85,1.46,1.71,2.92,3.35,3.72,1.64.8,3.31.59,4.99.38.98-.12,1.96-.24,2.65-.08.67.16,1.5.69,2.32,1.22.48.31.97.62,1.47.9l-6.33,17.55ZM33.41,63.87c-.83,0-1.87-.67-2.89-1.33-1.1-.71-2.19-1.41-3.48-1.71-1.34-.31-2.64-.15-3.94.01-1.15.14-2.29.29-2.92-.02-.63-.31-1.21-1.29-1.78-2.27-.66-1.12-1.31-2.24-2.35-3.08-1.05-.84-2.29-1.24-3.54-1.64-1.07-.34-2.13-.68-2.57-1.23-.43-.54-.54-1.66-.64-2.78-.12-1.3-.24-2.6-.84-3.82-.59-1.21-1.53-2.09-2.47-2.98-.84-.8-1.69-1.6-1.87-2.33-.17-.73.22-1.85.62-2.97.45-1.26.9-2.54.9-3.93s-.45-2.66-.9-3.93c-.4-1.13-.79-2.24-.62-2.97.17-.73,1.02-1.53,1.87-2.33.94-.89,1.87-1.77,2.47-2.98.6-1.22.72-2.52.84-3.82.1-1.12.21-2.24.64-2.78.44-.54,1.5-.89,2.57-1.23,1.25-.4,2.49-.8,3.54-1.64,1.04-.84,1.7-1.96,2.35-3.08.57-.98,1.15-1.96,1.78-2.27.63-.31,1.77-.16,2.92-.02,1.3.16,2.6.33,3.94.01,1.3-.3,2.39-1.01,3.48-1.71,1.02-.66,2.06-1.33,2.89-1.33s1.87.67,2.89,1.33c1.1.71,2.19,1.41,3.48,1.71,1.34.31,2.64.15,3.94-.01,1.15-.14,2.29-.29,2.92.02.63.31,1.21,1.29,1.78,2.27.66,1.12,1.31,2.24,2.35,3.08,1.05.84,2.29,1.24,3.54,1.64,1.07.34,2.13.68,2.57,1.23.43.54.54,1.66.64,2.78.12,1.3.24,2.6.84,3.82.59,1.21,1.53,2.09,2.47,2.98.84.8,1.69,1.6,1.86,2.33.17.73-.22,1.85-.62,2.97-.45,1.26-.9,2.54-.9,3.93s.45,2.66.9,3.93c.4,1.13.79,2.24.62,2.97-.17.73-1.02,1.53-1.86,2.33-.94.89-1.87,1.77-2.47,2.98-.6,1.22-.72,2.52-.84,3.82-.1,1.12-.21,2.24-.64,2.78-.44.54-1.5.89-2.57,1.23-1.25.4-2.49.8-3.54,1.64-1.04.84-1.7,1.96-2.35,3.08-.57.98-1.15,1.96-1.78,2.27-.63.31-1.77.16-2.92.02-1.3-.16-2.6-.32-3.94-.01-1.3.3-2.39,1.01-3.48,1.71-1.02.66-2.06,1.33-2.89,1.33ZM51.4,74.24c-.81-.24-1.66.11-2.09.8l-6.16,9.07-6.33-17.55c.5-.28.98-.59,1.47-.9.83-.53,1.65-1.06,2.32-1.22.69-.16,1.67-.04,2.65.08,1.68.21,3.36.42,4.99-.38,1.64-.8,2.49-2.26,3.35-3.72.48-.83.96-1.65,1.49-2.07.41-.33,1.07-.58,1.77-.82l7.13,19.78-10.6-3.08Z"></path>
        <path d="M48.66,18.53c-3.9-3.9-9.29-6.32-15.25-6.32s-11.35,2.41-15.25,6.32c-3.9,3.9-6.32,9.3-6.32,15.25s2.41,11.35,6.32,15.25,9.29,6.32,15.25,6.32,11.35-2.41,15.25-6.32,6.32-9.29,6.32-15.25-2.41-11.35-6.32-15.25ZM46.3,31.53c-.06.49-.3.91-.66,1.2l-4.86,4.56,1.27,6.66c.19,1-.47,1.97-1.47,2.17-.44.08-.88,0-1.24-.2l-5.94-3.27-5.94,3.27c-.9.49-2.02.16-2.51-.73-.22-.39-.27-.83-.2-1.24l1.27-6.66-4.95-4.64c-.74-.7-.78-1.87-.08-2.61.31-.33.71-.52,1.12-.57h0s6.72-.85,6.72-.85l2.88-6.13c.43-.92,1.53-1.32,2.46-.89.41.19.71.51.89.89h0s2.88,6.12,2.88,6.12l6.72.85c1.02.12,1.74,1.05,1.61,2.06Z"></path>
      </g>
    </g>
  </symbol>
  <symbol id="siding-icon" xmlns="http://www.w3.org/2000/svg" viewBox="0 0 78.56 92.17">
    <defs></defs>
    <g id="Layer_1-2">
      <g>
        <path d="M0,30.53c0-.13,0-.26,0-.39.05-.12.14-.23.15-.35.86-6.93,1.72-13.86,2.58-20.8.15-1.24.33-2.47.5-3.73.29,0,.49-.02.67,0,3.68.54,7.35,1.09,11.03,1.64,5.44.81,10.87,1.62,16.31,2.41,6.4.94,12.8,1.86,19.19,2.79,6.46.95,12.92,1.92,19.38,2.85.73.1.96.34.95,1.09-.03,7.62-.02,15.23-.02,22.85,0,.27-.04.55-.06.89-5.1-.66-10.1-1.31-15.1-1.96-4.68-.61-9.36-1.24-14.04-1.85-4.26-.56-8.53-1.11-12.79-1.67-4.62-.61-9.23-1.22-13.85-1.82-4.97-.65-9.94-1.3-14.91-1.95Z"></path>
        <path d="M70.78,92.17h-.58c-.62-.13-1.24-.29-1.87-.38-5.12-.75-10.24-1.49-15.35-2.24-5.09-.74-10.17-1.49-15.25-2.24-5.12-.75-10.24-1.48-15.35-2.23-5.6-.81-11.2-1.63-16.79-2.45-1.72-.25-3.43-.51-5.25-.78.89-7.96,1.76-15.82,2.64-23.72,22.65,2.98,45.2,5.94,67.79,8.91,0,.54,0,.92,0,1.31,0,7.94.02,15.88.03,23.81Z"></path>
        <path d="M73.51,92.17c0-5.99-.01-11.99-.01-17.98,0-19.51,0-39.01-.02-58.52,0-.77.21-1.24.87-1.64,1.43-.88,2.81-1.83,4.22-2.76v80.12c-1.56.26-3.11.52-4.67.78h-.39Z"></path>
        <path d="M14.2,0c2,.32,4,.67,6.01.97,5.08.76,10.17,1.5,15.25,2.24,5.53.81,11.06,1.62,16.59,2.43,5.47.8,10.93,1.61,16.4,2.41,2.59.38,5.17.77,7.76,1.15.09.1.18.2.27.29-.21.07-.42.14-.62.22-.09.04-.16.11-.24.16-1.36.86-2.62,2.13-4.1,2.45-1.45.32-3.11-.32-4.68-.55-5.6-.82-11.19-1.64-16.78-2.46-5.43-.8-10.87-1.61-16.3-2.41-5.56-.82-11.13-1.63-16.69-2.45-3.54-.52-7.07-1.05-10.84-1.61,2.61-1,5-1.93,7.39-2.85.19,0,.39,0,.58,0Z"></path>
        <path d="M73.89,92.17c1.56-.26,3.11-.52,4.67-.78v.78h-4.67Z"></path>
        <path d="M.42,55.04c.5-7.19.99-14.26,1.5-21.48,22.98,3.01,45.86,6,68.78,9v21.72c-23.44-3.08-46.81-6.15-70.28-9.23Z"></path>
      </g>
    </g>
  </symbol>
  <symbol version="1.1" xmlns="http://www.w3.org/2000/svg" viewBox="0 0 32 32" id="star-icon">
    <title>star</title>
    <path d="M3.488 13.184l6.272 6.112-1.472 8.608 7.712-4.064 7.712 4.064-1.472-8.608 6.272-6.112-8.64-1.248-3.872-7.808-3.872 7.808z"></path>
  </symbol>
  <symbol id="window-icon" xmlns="http://www.w3.org/2000/svg" viewBox="0 0 93.75 93.75">
    <defs></defs>
    <g id="Layer_1-2">
      <g>
        <path d="M87.5,81.25h-1.56V1.56c0-.86-.7-1.56-1.56-1.56H9.38c-.86,0-1.56.7-1.56,1.56v79.69h-1.56c-3.45,0-6.25,2.8-6.25,6.25s2.8,6.25,6.25,6.25h81.25c3.45,0,6.25-2.8,6.25-6.25s-2.8-6.25-6.25-6.25ZM48.44,7.81c0-.86.7-1.56,1.56-1.56h28.13c.86,0,1.56.7,1.56,1.56v31.25c0,.86-.7,1.56-1.56,1.56h-28.12c-.86,0-1.56-.7-1.56-1.56V7.81ZM48.44,45.31c0-.86.7-1.56,1.56-1.56h28.13c.86,0,1.56.7,1.56,1.56v31.25c0,.86-.7,1.56-1.56,1.56h-28.12c-.86,0-1.56-.7-1.56-1.56v-31.25ZM14.06,7.81c0-.86.7-1.56,1.56-1.56h28.12c.86,0,1.56.7,1.56,1.56v31.25c0,.86-.7,1.56-1.56,1.56H15.63c-.86,0-1.56-.7-1.56-1.56V7.81ZM14.06,45.31c0-.86.7-1.56,1.56-1.56h28.12c.86,0,1.56.7,1.56,1.56v31.25c0,.86-.7,1.56-1.56,1.56H15.63c-.86,0-1.56-.7-1.56-1.56v-31.25Z"></path>
        <path d="M20.51,18.12l6.97-5.82c.66-.55,1.75-.34,2.2.2.55.66.46,1.65-.2,2.2l-6.97,5.82c-.66.55-1.75.34-2.2-.2-.55-.66-.46-1.65.2-2.2Z"></path>
        <path d="M29.89,30.62l6.97-5.82c.66-.55,1.75-.34,2.2.2.55.66.46,1.65-.2,2.2l-6.97,5.82c-.66.55-1.75.34-2.2-.2-.55-.66-.46-1.65.2-2.2Z"></path>
        <path d="M20.51,28.27l16.34-13.63c.66-.55,1.75-.34,2.2.2.55.66.46,1.65-.2,2.2l-16.34,13.63c-.66.55-1.75.34-2.2-.2-.55-.66-.46-1.65.2-2.2Z"></path>
        <path d="M64.25,68.12l6.97-5.82c.66-.55,1.75-.34,2.2.2.55.66.46,1.65-.2,2.2l-6.97,5.82c-.66.55-1.75.34-2.2-.2-.55-.66-.46-1.65.2-2.2Z"></path>
        <path d="M54.9,65.77l16.34-13.63c.66-.55,1.75-.34,2.2.2.55.66.46,1.65-.2,2.2l-16.34,13.63c-.66.55-1.75.34-2.2-.2-.55-.66-.46-1.65.2-2.2Z"></path>
      </g>
    </g>
  </symbol>
  <symbol id="checkmark-icon" xmlns="http://www.w3.org/2000/svg" viewBox="0 0 62.12 62.12">
    <defs></defs>
    <g id="Layer_1-2">
      <path d="M31.06,0C13.91,0,0,13.91,0,31.06s13.91,31.06,31.06,31.06,31.06-13.91,31.06-31.06S48.22,0,31.06,0ZM44.47,17.29l4.25,3.88-23.3,25.78-12.01-12.01,4.07-4.07,7.58,7.58,19.41-21.17h0Z"></path>
    </g>
  </symbol>
</svg>