<?xml version="1.0" encoding="UTF-8"?>
<svg id="Layer_2" data-name="Layer 2" xmlns="http://www.w3.org/2000/svg" viewBox="0 0 93.75 93.75">
  <defs>
    <style>
      .cls-1 {
        fill: #010101;
      }
    </style>
  </defs>
  <g id="Layer_1-2" data-name="Layer 1">
    <g>
      <path class="cls-1" d="M87.5,81.25h-1.56V1.56c0-.86-.7-1.56-1.56-1.56H9.38c-.86,0-1.56.7-1.56,1.56v79.69h-1.56c-3.45,0-6.25,2.8-6.25,6.25s2.8,6.25,6.25,6.25h81.25c3.45,0,6.25-2.8,6.25-6.25s-2.8-6.25-6.25-6.25ZM48.44,7.81c0-.86.7-1.56,1.56-1.56h28.13c.86,0,1.56.7,1.56,1.56v31.25c0,.86-.7,1.56-1.56,1.56h-28.12c-.86,0-1.56-.7-1.56-1.56V7.81ZM48.44,45.31c0-.86.7-1.56,1.56-1.56h28.13c.86,0,1.56.7,1.56,1.56v31.25c0,.86-.7,1.56-1.56,1.56h-28.12c-.86,0-1.56-.7-1.56-1.56v-31.25ZM14.06,7.81c0-.86.7-1.56,1.56-1.56h28.12c.86,0,1.56.7,1.56,1.56v31.25c0,.86-.7,1.56-1.56,1.56H15.63c-.86,0-1.56-.7-1.56-1.56V7.81ZM14.06,45.31c0-.86.7-1.56,1.56-1.56h28.12c.86,0,1.56.7,1.56,1.56v31.25c0,.86-.7,1.56-1.56,1.56H15.63c-.86,0-1.56-.7-1.56-1.56v-31.25Z"/>
      <path class="cls-1" d="M20.51,18.12l6.97-5.82c.66-.55,1.75-.34,2.2.2.55.66.46,1.65-.2,2.2l-6.97,5.82c-.66.55-1.75.34-2.2-.2-.55-.66-.46-1.65.2-2.2Z"/>
      <path class="cls-1" d="M29.89,30.62l6.97-5.82c.66-.55,1.75-.34,2.2.2.55.66.46,1.65-.2,2.2l-6.97,5.82c-.66.55-1.75.34-2.2-.2-.55-.66-.46-1.65.2-2.2Z"/>
      <path class="cls-1" d="M20.51,28.27l16.34-13.63c.66-.55,1.75-.34,2.2.2.55.66.46,1.65-.2,2.2l-16.34,13.63c-.66.55-1.75.34-2.2-.2-.55-.66-.46-1.65.2-2.2Z"/>
      <path class="cls-1" d="M64.25,68.12l6.97-5.82c.66-.55,1.75-.34,2.2.2.55.66.46,1.65-.2,2.2l-6.97,5.82c-.66.55-1.75.34-2.2-.2-.55-.66-.46-1.65.2-2.2Z"/>
      <path class="cls-1" d="M54.9,65.77l16.34-13.63c.66-.55,1.75-.34,2.2.2.55.66.46,1.65-.2,2.2l-16.34,13.63c-.66.55-1.75.34-2.2-.2-.55-.66-.46-1.65.2-2.2Z"/>
    </g>
  </g>
</svg>